<svg width="18" height="18" viewBox="0 0 18 18" fill="none" xmlns="http://www.w3.org/2000/svg">
    <path
        d="M8.96428 1.85957C10.3765 1.85957 11.7571 2.27835 12.9313 3.06296C14.1056 3.84757 15.0208 4.96276 15.5612 6.26752C16.1017 7.57227 16.2431 9.00799 15.9676 10.3931C15.6921 11.7782 15.012 13.0505 14.0134 14.0492C13.0148 15.0478 11.7424 15.7278 10.3573 16.0034C8.9722 16.2789 7.53648 16.1375 6.23173 15.597C4.92697 15.0566 3.81178 14.1414 3.02717 12.9671C2.24257 11.7929 1.82378 10.4123 1.82378 9.00006C1.8311 7.10854 2.58574 5.29657 3.92326 3.95905C5.26079 2.62153 7.07275 1.86688 8.96428 1.85957ZM8.96428 0.272793C7.23972 0.279848 5.55592 0.797684 4.12543 1.76093C2.69494 2.72417 1.58191 4.08964 0.926831 5.68495C0.271755 7.28026 0.104012 9.03389 0.444777 10.7245C0.785541 12.415 1.61954 13.9667 2.84148 15.1837C4.06342 16.4006 5.61852 17.2283 7.31046 17.5622C9.00241 17.896 10.7553 17.7211 12.348 17.0595C13.9406 16.398 15.3015 15.2794 16.2589 13.8449C17.2163 12.4105 17.7272 10.7246 17.7273 9.00006C17.7273 7.85097 17.5003 6.71319 17.0595 5.65202C16.6187 4.59084 15.9727 3.62716 15.1585 2.81629C14.3443 2.00542 13.378 1.36332 12.315 0.926842C11.2521 0.490361 10.1134 0.268093 8.96428 0.272793Z"
        fill="#000000" />
</svg>